<?xml version="1.0" encoding="UTF-8"?>
<svg id="Layer_1" data-name="Layer 1" xmlns="http://www.w3.org/2000/svg" viewBox="0 0 600 600">
  <defs>
    <style>
      .cls-1 {
        fill: #d63f3a;
      }

      .cls-1, .cls-2, .cls-3, .cls-4, .cls-5, .cls-6, .cls-7, .cls-8, .cls-9, .cls-10, .cls-11 {
        stroke-width: 0px;
      }

      .cls-2 {
        fill: #fceed8;
      }

      .cls-3 {
        fill: #00115b;
      }

      .cls-4 {
        fill: #ffce99;
      }

      .cls-5 {
        fill: #f26b2e;
      }

      .cls-6 {
        fill: #e94f36;
      }

      .cls-7 {
        fill: #1c0007;
      }

      .cls-8 {
        fill: #f78c3d;
      }

      .cls-9 {
        fill: #f8ab62;
      }

      .cls-10 {
        fill: #8c2c3b;
      }

      .cls-11 {
        fill: #b5323e;
      }
    </style>
  </defs>
  <path class="cls-3" d="M334.16,496.57c-11.1,1.93-22.52,2.93-34.16,2.93s-23.06-1-34.16-2.93h68.32Z"/>
  <path class="cls-7" d="M431.39,450c-.6.53-1.21,1.05-1.81,1.57-26.67,22.83-59.4,38.76-95.42,45h-68.32c-36.38-6.3-69.41-22.49-96.22-45.69-.33-.29-.67-.58-1.01-.88h119.11c4.05.33,8.14.5,12.28.5s8.23-.17,12.28-.5h119.11Z"/>
  <path class="cls-4" d="M287.72,450h-119.11c-3.86-3.39-7.59-6.92-11.18-10.59-10.2-10.43-19.27-21.96-27-34.41h61.84c8.87,9.09,18.87,17.07,29.78,23.7,19.45,11.82,41.78,19.37,65.67,21.3Z"/>
  <path class="cls-4" d="M469.57,405c-8.97,14.43-19.73,27.64-31.97,39.32-2.03,1.93-4.1,3.83-6.21,5.68h-119.11c23.89-1.93,46.22-9.48,65.67-21.3,10.91-6.63,20.91-14.61,29.78-23.7h61.84Z"/>
  <path class="cls-9" d="M192.27,405h-61.84c-8.67-13.95-15.67-29.04-20.7-45h52.25c2.25,5.16,4.78,10.16,7.57,15,4.81,8.34,10.4,16.17,16.66,23.41,1.96,2.25,3.98,4.45,6.06,6.59Z"/>
  <path class="cls-9" d="M490.27,360c-.2.67-.42,1.34-.64,2-4.98,15.22-11.75,29.63-20.06,43h-61.84c12.63-12.96,22.95-28.19,30.29-45h52.25Z"/>
  <path class="cls-8" d="M161.98,360h-52.25c-4.55-14.37-7.51-29.44-8.67-45h49.18c1.58,15.85,5.62,30.98,11.74,45Z"/>
  <path class="cls-8" d="M498.94,315c-1.16,15.56-4.12,30.63-8.67,45h-52.25c2.28-5.22,4.27-10.59,5.94-16.09,2.85-9.29,4.81-18.96,5.8-28.91h49.18Z"/>
  <path class="cls-5" d="M149.5,300c0,5.06.25,10.06.74,15h-49.18c-.37-4.95-.56-9.96-.56-15v-.44c.02-10.04.79-19.91,2.25-29.56h49.75c-1.97,9.7-3,19.73-3,30Z"/>
  <path class="cls-5" d="M499.5,300c0,.39,0,.79-.01,1.18-.02,4.65-.21,9.25-.55,13.82h-49.18c.43-4.32.67-8.68.73-13.1.01-.63.01-1.26.01-1.9,0-10.27-1.03-20.3-3-30h49.75c1.48,9.79,2.25,19.81,2.25,30Z"/>
  <path class="cls-6" d="M169.55,225c-7.13,12.36-12.55,25.81-15.95,40.04-.39,1.65-.76,3.3-1.1,4.96h-49.75c.66-4.31,1.45-8.58,2.38-12.8.14-.67.29-1.34.45-2,.55-2.41,1.15-4.81,1.79-7.19,1.68-6.23,3.66-12.33,5.92-18.3.59-1.58,1.21-3.15,1.84-4.71h54.42Z"/>
  <path class="cls-6" d="M497.25,270h-49.75c-3.27-16.07-9.1-31.22-17.05-45h54.42c5.8,14.26,10,29.33,12.38,45Z"/>
  <path class="cls-1" d="M209.27,180c-4.1,3.1-8.04,6.41-11.79,9.91h-.01c-10.96,10.22-20.39,22.04-27.92,35.09h-54.42c6.58-16.16,15.22-31.27,25.6-45h68.54Z"/>
  <path class="cls-1" d="M484.87,225h-54.42c-3.75-6.5-7.97-12.69-12.62-18.53-1.03-1.29-2.08-2.57-3.15-3.82-7.13-8.39-15.16-15.99-23.95-22.65h68.54c2.77,3.66,5.41,7.42,7.92,11.27.45.67.88,1.35,1.31,2.03,6.36,10,11.85,20.6,16.37,31.7Z"/>
  <path class="cls-11" d="M459.27,180h-68.54c-25.24-19.14-56.68-30.5-90.73-30.5s-65.49,11.36-90.73,30.5h-68.54c13.17-17.45,29.15-32.67,47.25-45h224.04c18.1,12.33,34.08,27.55,47.25,45Z"/>
  <path class="cls-10" d="M412.02,135h-224.04c6.98-4.76,14.28-9.08,21.86-12.94,27.1-13.78,57.74-21.56,90.16-21.56,41.49,0,80.07,12.74,112.02,34.5Z"/>
  <path class="cls-7" d="M217.12,129.53c-2,.45-4.09,2.47-6.21,5.47-8.14,11.51-16.61,37.5-20.99,45-.71,1.21-1.31,1.94-1.79,2.05-4.21,1-12.14,4.71-12.14,4.71,0,0,8.43,2.23,7.43,2.23s-6.75,15.13-6.92,15.6c6.87-7.66,14.94-12.15,20.97-14.67-10.96,10.21-20.39,22.03-27.92,35.08-7.13,12.36-12.55,25.81-15.95,40.04-3.99,1.09-8.09,3.02-11.59,4.96-5.35,2.97-9.3,5.96-9.3,5.96-.58-.75-.74-3.47-.76-5.96-.02-2.41.1-4.61.1-4.61-.7.56-1.37,2.37-1.94,4.61-1.31,5.08-2.19,12.4-2.19,12.4-5.94,1.98-22.79,21.31-22.79,21.31-1.84-.58-3.36-2.07-4.63-4.15.02-10.04.79-19.91,2.25-29.56.66-4.31,1.45-8.58,2.38-12.8l2.23-1.56-1.78-.44c.55-2.41,1.15-4.81,1.79-7.19l17.09-17.64-11.17-.66c.59-1.58,1.21-3.15,1.84-4.71,6.58-16.16,15.22-31.27,25.6-45,13.17-17.45,29.15-32.67,47.25-45,6.98-4.76,14.28-9.08,21.86-12.94,5.8,2.33,7.28,7.47,7.28,7.47Z"/>
  <path class="cls-7" d="M186.21,398.41c-.18,2.24-.39,4.44-.62,6.59-2.46,23.48-7.2,40.97-8.35,45-.17.58-.26.88-.26.88h-7.36c-.33-.29-.67-.58-1.01-.88-3.86-3.39-7.59-6.92-11.18-10.59,4.71-10.04,7.69-22.09,9.55-34.41,1.52-10.14,2.27-20.47,2.57-30,4.81,8.34,10.4,16.17,16.66,23.41Z"/>
  <path class="cls-7" d="M437.16,446.11c-.32,1.29-.62,2.58-.93,3.89-.12.52-.24,1.04-.36,1.57h-4.75c.6-.52,1.19-1.04,1.78-1.57,1.44-1.27,2.86-2.57,4.26-3.89Z"/>
  <path class="cls-7" d="M499.49,301.18c-.02,4.65-.21,9.25-.55,13.82-1.16,15.56-4.12,30.63-8.67,45-.2.67-.42,1.34-.64,2-4.28.07-10.22-.23-14.63-2-1.65-.65-3.09-1.52-4.15-2.64,0,0-.52.91-1.44,2.64-3.24,6.07-11.45,22.27-19.75,45-4.21,11.57-8.45,24.84-12.06,39.32-2.03,1.93-4.1,3.83-6.21,5.68-.6.53-1.21,1.05-1.81,1.57h-3.25l.37-1.57.23-.98s6.3-21.43,13.97-44.02c5.91-17.37,12.62-35.44,17.92-45,1.83-3.29,3.48-5.57,4.88-6.47,0,0-9.2-6.38-9.07-9.96,0,0-4.54.86-10.67.34,2.85-9.29,4.81-18.96,5.8-28.91.43-4.32.67-8.68.73-13.1l45.97-4.88,3.03,4.16Z"/>
  <path class="cls-2" d="M287.72,450h-63.81c-1.27-5.61-1.95-11.45-1.95-17.44,0-1.3.03-2.58.09-3.86,19.45,11.82,41.78,19.37,65.67,21.3Z"/>
  <path class="cls-2" d="M378.04,432.56c0,5.99-.68,11.83-1.95,17.44h-63.81c23.89-1.93,46.22-9.48,65.67-21.3.06,1.28.09,2.56.09,3.86Z"/>
  <path class="cls-7" d="M432.82,204.54c-5.57-.58-10.71.42-14.99,1.93-1.03-1.29-2.08-2.57-3.15-3.82,13.19-2.65,18.14,1.89,18.14,1.89Z"/>
  <path class="cls-7" d="M468.5,193.3c-8.28,1.09-14.24,6.18-14.24,6.18-3.66-8.26-18.31-15.48-18.31-15.48,15.39.42,18.94,9.52,18.94,9.52,5.32-1.87,9.35-2.36,12.3-2.25.45.67.88,1.35,1.31,2.03Z"/>
  <path class="cls-7" d="M413.24,174.16s13.12-11.22,29.72-9.49c0,0-7.59-6.96-28.77.47,0,0-5.38-13.75-28.61-14.39,0,0,22.13,10.91,27.67,23.4Z"/>
</svg>