<?xml version="1.0" encoding="UTF-8"?>
<svg id="Layer_1" data-name="Layer 1" xmlns="http://www.w3.org/2000/svg" viewBox="0 0 600 600">
  <defs>
    <style>
      .cls-1 {
        fill: #d63f3a;
      }

      .cls-1, .cls-2, .cls-3, .cls-4, .cls-5, .cls-6, .cls-7, .cls-8, .cls-9, .cls-10, .cls-11 {
        stroke-width: 0px;
      }

      .cls-2 {
        fill: #00115b;
      }

      .cls-3 {
        fill: #ffce99;
      }

      .cls-4 {
        fill: #f26b2e;
      }

      .cls-12 {
        fill: none;
        stroke: #fff;
        stroke-miterlimit: 10;
        stroke-width: .5px;
      }

      .cls-5 {
        fill: #e94f36;
      }

      .cls-6 {
        fill: #1c0007;
      }

      .cls-7 {
        fill: #f78c3d;
      }

      .cls-8 {
        fill: #f8ab62;
      }

      .cls-9 {
        fill: #600b1b;
      }

      .cls-10 {
        fill: #8c2c3b;
      }

      .cls-11 {
        fill: #b5323e;
      }
    </style>
  </defs>
  <path class="cls-2" d="M454.49,496.57c-42.52,33.47-96.17,53.43-154.49,53.43s-111.97-19.96-154.49-53.43h117.43c12.01,2.25,24.4,3.43,37.06,3.43s25.05-1.18,37.06-3.43h117.43Z"/>
  <path class="cls-6" d="M262.94,496.57h-117.43c-16.96-13.35-32.15-28.85-45.16-46.08-.13-.16-.25-.32-.37-.49h67.73c.33.29.67.59,1.01.88,26.27,22.89,58.58,39.02,94.22,45.69Z"/>
  <path class="cls-6" d="M500.02,450c-13.09,17.43-28.41,33.09-45.53,46.57h-117.43c35.28-6.61,67.29-22.48,93.42-45,.61-.51,1.21-1.04,1.81-1.57h67.73Z"/>
  <path class="cls-3" d="M167.71,450h-67.73c-7.22-9.61-13.77-19.76-19.56-30.38-2.61-4.78-5.07-9.66-7.37-14.62h56.7c7.83,12.67,17.03,24.4,27.41,34.98,3.39,3.47,6.91,6.81,10.55,10.02Z"/>
  <path class="cls-3" d="M470.25,405h56.7c-3.11,6.72-6.52,13.28-10.2,19.66-1.59,2.77-3.24,5.5-4.94,8.2-3.69,5.88-7.63,11.6-11.79,17.14h-67.73c1.71-1.51,3.38-3.04,5.04-4.6h.01c12.64-11.96,23.72-25.53,32.91-40.4Z"/>
  <path class="cls-8" d="M129.75,405h-56.7c-6.64-14.32-11.95-29.37-15.8-45h51.91c5.01,15.96,11.96,31.05,20.59,45Z"/>
  <path class="cls-8" d="M542.75,360c-.03.15-.07.29-.11.44-1.67,6.75-3.62,13.39-5.83,19.92-2.86,8.42-6.15,16.64-9.86,24.64h-56.7c8.27-13.37,15-27.79,19.96-43.01.21-.66.43-1.32.63-1.99h51.91Z"/>
  <path class="cls-7" d="M109.16,360h-51.91c-3.59-14.54-5.9-29.58-6.8-45h50.1c1.16,15.57,4.09,30.63,8.61,45Z"/>
  <path class="cls-7" d="M549.55,315c-.9,15.42-3.21,30.46-6.8,45h-51.91c4.52-14.37,7.45-29.43,8.61-45h50.1Z"/>
  <path class="cls-4" d="M100,300c0,5.05.19,10.05.55,15h-50.1c-.3-4.96-.45-9.96-.45-15,0-10.15.61-20.17,1.79-30h50.44c-1.4,9.37-2.16,18.95-2.22,28.7-.01.43-.01.87-.01,1.3Z"/>
  <path class="cls-4" d="M550,300c0,5.04-.15,10.04-.45,15h-50.1c.32-4.34.5-8.72.54-13.13h0c.01-.63.01-1.25.01-1.87,0-10.2-.76-20.21-2.23-30h50.44c1.18,9.83,1.79,19.85,1.79,30Z"/>
  <path class="cls-5" d="M114.54,225c-.63,1.55-1.24,3.11-1.83,4.68-2.34,6.22-4.37,12.59-6.08,19.09-.56,2.09-1.08,4.19-1.56,6.3-.2.85-.39,1.71-.57,2.57-.88,4.07-1.64,8.2-2.27,12.36h-50.44c1.58-13.32,4.22-26.31,7.82-38.89.59-2.05,1.2-4.08,1.84-6.11h53.09Z"/>
  <path class="cls-5" d="M548.21,270h-50.44c-2.36-15.67-6.54-30.74-12.31-45h53.09c4.55,14.48,7.82,29.52,9.66,45Z"/>
  <path class="cls-1" d="M139.99,180c-10.32,13.73-18.91,28.84-25.45,45h-53.09c2.41-7.69,5.19-15.22,8.3-22.58,3.26-7.67,6.89-15.16,10.88-22.42h59.36Z"/>
  <path class="cls-1" d="M538.55,225h-53.09c-4.5-11.13-9.98-21.76-16.32-31.78-.41-.64-.81-1.28-1.23-1.92-2.5-3.86-5.14-7.63-7.9-11.3h59.36c7.8,14.22,14.25,29.27,19.18,45Z"/>
  <path class="cls-11" d="M186.94,135c-17.99,12.35-33.86,27.57-46.95,45h-59.36c2.95-5.39,6.1-10.67,9.43-15.81,6.51-10.04,13.72-19.58,21.56-28.55.18-.21.37-.43.56-.64h74.76Z"/>
  <path class="cls-11" d="M519.37,180h-59.36c-13.09-17.43-28.96-32.65-46.95-45h74.76c12.09,13.75,22.69,28.83,31.55,45Z"/>
  <path class="cls-10" d="M487.82,135h-74.76c-32.16-22.08-71.1-35-113.06-35-32.72,0-63.61,7.86-90.87,21.79-7.7,3.93-15.11,8.35-22.19,13.21h-74.76c15.19-17.28,32.73-32.44,52.11-45h271.42c19.38,12.56,36.92,27.72,52.11,45Z"/>
  <path class="cls-9" d="M435.71,90H164.29c39.08-25.31,85.68-40,135.71-40s96.63,14.69,135.71,40Z"/>
  <path class="cls-6" d="M104.5,257.64c-.88,4.07-1.64,8.2-2.27,12.36-1.4,9.37-2.16,18.95-2.22,28.7-4.07-7.52-5.27-21.23-5.63-28.7-.15-3.15-.15-5.19-.15-5.19l10.27-7.17Z"/>
  <path class="cls-6" d="M106.63,248.77c-.56,2.09-1.08,4.19-1.56,6.3l-3.66-.91,5.22-5.39Z"/>
  <path class="cls-6" d="M209.13,121.79c-7.7,3.93-15.11,8.35-22.19,13.21-17.99,12.35-33.86,27.57-46.95,45-10.32,13.73-18.91,28.84-25.45,45-.63,1.55-1.24,3.11-1.83,4.68l-17.74-1.04,1.1-3.64,2.12-7.02c-2.83.13-5.79,3.65-7.98,7.02-2.04,3.12-3.42,6.11-3.42,6.11h-27.18c.59-2.05,1.2-4.08,1.84-6.11,2.41-7.69,5.19-15.22,8.3-22.58,19.92-8.02,45.79-6.53,45.79-6.53,0,0-13.22-11.77-13.71-14.25-.11-.52.28-1.08.96-1.64,2.53-2.09,9.11-4.14,9.11-4.14l-16.02-1.49-5.82-10.18c6.51-10.04,13.72-19.58,21.56-28.55,10.85,5.73,17.13,19.57,17.13,19.57l1.65-9.74c5.62.99,21.19,19.61,21.19,19.61,0-3.96,8.92-23.29,10.28-22.92,1.36.38,3.22,8.06,3.22,8.06.79-6.01,2.41-11.04,4.4-15.22,5.97-12.51,15.27-17.29,15.66-17.48-2.22,5.81,1.74,8.04,1.74,8.04,10.65-5.17,17.67-5.33,22.24-3.77Z"/>
  <path class="cls-6" d="M168.72,450.88h-18.17c.22-.29.45-.58.66-.88,2.24-3.01,4.21-6.38,5.95-10.02,3.39,3.47,6.91,6.81,10.55,10.02.33.29.67.59,1.01.88Z"/>
  <path class="cls-6" d="M437.33,445.4c-.37,1.52-.74,3.05-1.1,4.6-.12.52-.24,1.04-.36,1.57h-5.39c.61-.51,1.21-1.04,1.81-1.57,1.71-1.51,3.38-3.04,5.04-4.6Z"/>
  <path class="cls-6" d="M542.64,360.44c-1.67,6.75-3.62,13.39-5.83,19.92-1.28-1.08-2.53-2.3-3.75-3.68,0,0-29.96,2.38-37.96-14.98,0,0-2,.22-4.89.29.21-.66.43-1.32.63-1.99,4.52-14.37,7.45-29.43,8.61-45,.32-4.34.5-8.72.54-13.13l9.56,13.13,32.77,45,.32.44Z"/>
  <path class="cls-6" d="M516.75,424.66c-1.59,2.77-3.24,5.5-4.94,8.2h-11.61l-12.94,17.14-4.27,5.65-6.55-4.95.53-.7,12.95-17.14h-4.42c-1.78,0-3.38-.72-4.55-1.88-1.16-1.17-1.88-2.78-1.88-4.55l-10.24-13.55c-1.15-1.52-.85-3.69.68-4.84,1.52-1.15,3.69-.85,4.84.67l12.04,15.95h30.36Z"/>
  <path class="cls-6" d="M473.94,193.21c-1.66-.18-3.27-.15-4.8.01-.41-.64-.81-1.28-1.23-1.92,4.29.31,6.03,1.91,6.03,1.91Z"/>
  <path class="cls-6" d="M114.93,431.72c0,8.46-5.42,15.64-12.98,18.28-.52.19-1.06.35-1.6.49-.13-.16-.25-.32-.37-.49-7.22-9.61-13.77-19.76-19.56-30.38,3.54-4.44,9-7.28,15.13-7.28,10.7,0,19.38,8.67,19.38,19.38Z"/>
  <path class="cls-12" d="M548.21,270c-1.84-15.48-5.11-30.52-9.66-45-4.93-15.73-11.38-30.78-19.18-45-8.86-16.17-19.46-31.25-31.55-45-15.19-17.28-32.73-32.44-52.11-45-39.08-25.31-85.68-40-135.71-40s-96.63,14.69-135.71,40c-19.38,12.56-36.92,27.72-52.11,45-.19.21-.38.43-.56.64-7.84,8.97-15.05,18.51-21.56,28.55-3.33,5.14-6.48,10.42-9.43,15.81-3.99,7.26-7.62,14.75-10.88,22.42-3.11,7.36-5.89,14.89-8.3,22.58-.64,2.03-1.25,4.06-1.84,6.11-3.6,12.58-6.24,25.57-7.82,38.89-1.18,9.83-1.79,19.85-1.79,30,0,5.04.15,10.04.45,15,.9,15.42,3.21,30.46,6.8,45,3.85,15.63,9.16,30.68,15.8,45,2.3,4.96,4.76,9.84,7.37,14.62,5.79,10.62,12.34,20.77,19.56,30.38.12.17.24.33.37.49,13.01,17.23,28.2,32.73,45.16,46.08,42.52,33.47,96.17,53.43,154.49,53.43s111.97-19.96,154.49-53.43c17.12-13.48,32.44-29.14,45.53-46.57,4.16-5.54,8.1-11.26,11.79-17.14,1.7-2.7,3.35-5.43,4.94-8.2,3.68-6.38,7.09-12.94,10.2-19.66,3.71-8,7-16.22,9.86-24.64,2.21-6.53,4.16-13.17,5.83-19.92.04-.15.08-.29.11-.44,3.59-14.54,5.9-29.58,6.8-45,.3-4.96.45-9.96.45-15,0-10.15-.61-20.17-1.79-30ZM437.34,445.39h-.01c-1.66,1.57-3.33,3.1-5.04,4.61-.6.53-1.2,1.06-1.81,1.57-26.13,22.52-58.14,38.39-93.42,45-12.01,2.25-24.4,3.43-37.06,3.43s-25.05-1.18-37.06-3.43c-35.64-6.67-67.95-22.8-94.22-45.69-.34-.29-.68-.59-1.01-.88-3.64-3.21-7.16-6.55-10.55-10.02-10.38-10.58-19.58-22.31-27.41-34.98-8.63-13.95-15.58-29.04-20.59-45-4.52-14.37-7.45-29.43-8.61-45-.36-4.95-.55-9.95-.55-15,0-.43,0-.87.01-1.3.06-9.75.82-19.33,2.22-28.7.63-4.16,1.39-8.29,2.27-12.36.18-.86.37-1.72.57-2.57.48-2.11,1-4.21,1.56-6.3,1.71-6.5,3.74-12.87,6.08-19.09.59-1.57,1.2-3.13,1.83-4.68,6.54-16.16,15.13-31.27,25.45-45,13.09-17.43,28.96-32.65,46.95-45,7.08-4.86,14.49-9.28,22.19-13.21,27.26-13.93,58.15-21.79,90.87-21.79,41.96,0,80.9,12.92,113.06,35,17.99,12.35,33.86,27.57,46.95,45,2.76,3.67,5.4,7.44,7.9,11.3.42.64.82,1.28,1.23,1.92,6.34,10.02,11.82,20.65,16.32,31.78,5.77,14.26,9.95,29.33,12.31,45,1.47,9.79,2.23,19.8,2.23,30,0,.62,0,1.24-.01,1.86h0c-.04,4.42-.22,8.8-.54,13.14-1.16,15.57-4.09,30.63-8.61,45-.2.67-.42,1.33-.63,1.99-4.96,15.22-11.69,29.64-19.96,43.01-9.19,14.87-20.27,28.44-32.91,40.39Z"/>
</svg>