<?xml version="1.0" encoding="UTF-8"?>
<svg id="Layer_1" data-name="Layer 1" xmlns="http://www.w3.org/2000/svg" viewBox="0 0 600 600">
  <defs>
    <style>
      .cls-1 {
        fill: #d63f3a;
      }

      .cls-1, .cls-2, .cls-3, .cls-4, .cls-5, .cls-6, .cls-7, .cls-8, .cls-9 {
        stroke-width: 0px;
      }

      .cls-2 {
        fill: #fceed8;
      }

      .cls-3 {
        fill: #ffce99;
      }

      .cls-4 {
        fill: #f26b2e;
      }

      .cls-10 {
        fill: none;
        stroke: #fff;
        stroke-miterlimit: 10;
        stroke-width: .5px;
      }

      .cls-5 {
        fill: #e94f36;
      }

      .cls-6 {
        fill: #1c0007;
      }

      .cls-7 {
        fill: #f78c3d;
      }

      .cls-8 {
        fill: #f8ab62;
      }

      .cls-9 {
        fill: #b5323e;
      }
    </style>
  </defs>
  <path class="cls-3" d="M407.11,405c-8.7,8.89-18.51,16.69-29.19,23.2-22.71,13.83-49.38,21.8-77.92,21.8s-55.21-7.97-77.92-21.8c-10.68-6.51-20.49-14.31-29.19-23.2h214.22Z"/>
  <path class="cls-8" d="M437.52,360c-7.36,16.84-17.72,32.07-30.41,45h-214.22c-2.28-2.33-4.49-4.73-6.63-7.21-6.29-7.31-11.89-15.23-16.69-23.67-2.6-4.56-4.97-9.27-7.09-14.12h57.52c6.03,8.04,13.25,15.14,21.4,21.03,16.46,11.94,36.71,18.97,58.6,18.97s42.14-7.03,58.6-18.97c8.15-5.89,15.37-12.99,21.4-21.03h57.52Z"/>
  <path class="cls-7" d="M220,360h-57.52c-6.12-14.01-10.17-29.14-11.74-45h50.38c2.51,16.72,9.16,32.07,18.88,45Z"/>
  <path class="cls-7" d="M449.26,315c-.99,9.94-2.95,19.6-5.78,28.87-1.68,5.52-3.68,10.9-5.96,16.13h-57.52c7.62-10.13,13.35-21.76,16.68-34.36.92-3.48,1.66-7.03,2.2-10.64h50.38Z"/>
  <path class="cls-4" d="M201.52,282.56c-1,5.66-1.52,11.49-1.52,17.44,0,5.1.38,10.11,1.12,15h-50.38c-.49-4.94-.74-9.94-.74-15,0-10.27,1.03-20.31,3-30h51.58c-1.28,4.08-2.31,8.27-3.06,12.56Z"/>
  <path class="cls-4" d="M447,270c1.97,9.69,3,19.73,3,30,0,.65,0,1.31-.01,1.96-.06,4.39-.3,8.74-.73,13.04h-50.38c.38-2.54.67-5.11.86-7.7.17-2.41.26-4.85.26-7.3,0-10.45-1.6-20.53-4.58-30h51.58Z"/>
  <path class="cls-5" d="M233.87,225c-8.96,7.89-16.49,17.37-22.15,27.99-2.88,5.39-5.28,11.08-7.14,17.01h-51.58c.35-1.71.72-3.41,1.13-5.1,3.4-14.19,8.82-27.6,15.95-39.9h63.79Z"/>
  <path class="cls-5" d="M429.92,225c7.97,13.77,13.81,28.92,17.08,45h-51.58c-5.52-17.6-15.79-33.1-29.29-45h63.79Z"/>
  <path class="cls-1" d="M429.92,225h-63.79c-17.62-15.57-40.77-25-66.13-25-18.28,0-35.42,4.9-50.16,13.48-5.59,3.23-10.83,7-15.66,11.25.41.08.83.17,1.25.27h-65.35c7.67-13.27,17.31-25.25,28.54-35.54,3.63-3.34,7.43-6.49,11.38-9.46h180c8.89,6.67,17,14.3,24.19,22.75,1.09,1.27,2.16,2.57,3.2,3.88,4.62,5.79,8.81,11.93,12.53,18.37Z"/>
  <path class="cls-9" d="M390,180h-180c25.06-18.84,56.23-30,90-30s64.94,11.16,90,30Z"/>
  <path class="cls-6" d="M249.84,213.48c-5.59,3.23-10.83,7-15.66,11.25-4.2-.87-7.31-1.13-7.31-1.13l-8.26-13.88.33,14.21h-16.52l-9.91-9.91,4.04,10.98.58,1.57-9.91,9.58c11,4.79,18.9,10.59,24.5,16.84-2.88,5.39-5.28,11.08-7.14,17.01-1.28,4.08-2.31,8.27-3.06,12.56-.25-4.99-.99-9.16-1.25-7.34-.49,3.46-7.43,12.14-7.43,12.14l-15.05-17.36-2.13-2.46s.14.86.4,2.46c.97,6.15,3.59,23.29,6.13,45,1.61,13.71,3.18,29.24,4.3,45,.02.34.05.69.07,1.03.9,12.89.6,25.39-.3,36.76-6.29-7.31-11.89-15.23-16.69-23.67.16-4.98.18-9.74.13-14.12-.19-15.51-1.31-26.39-1.31-26.39l-1.64-18.61-3.98-45-.49-5.6c-2.47-.51-5.27-.24-8.15.5,3.4-14.19,8.82-27.6,15.95-39.9,7.67-13.27,17.31-25.25,28.54-35.54,4.66-1.85,7.85-2.45,7.85-2.45,26.8-2.36,38.38,12.74,43.37,26.47Z"/>
  <path class="cls-6" d="M443.48,343.87c-8.41-.8-19.58-4.24-26.12-15.87,0,0-10.69,1.41-20.68-2.36.92-3.48,1.66-7.03,2.2-10.64.38-2.54.67-5.11.86-7.7l50.25-5.34c-.06,4.39-.3,8.74-.73,13.04-.99,9.94-2.95,19.6-5.78,28.87Z"/>
  <path class="cls-2" d="M377.92,428.2c-22.71,13.83-49.38,21.8-77.92,21.8s-55.21-7.97-77.92-21.8c.45-8.13,2.14-15.92,4.9-23.2,3.34-8.88,8.27-16.98,14.42-23.97,16.46,11.94,36.71,18.97,58.6,18.97s42.14-7.03,58.6-18.97c6.15,6.99,11.08,15.09,14.42,23.97,2.76,7.28,4.45,15.07,4.9,23.2Z"/>
  <path class="cls-6" d="M417.39,206.63c-7.22,2.63-11.9,6.63-11.9,6.63-5.09-11.49-25.45-21.52-25.45-21.52,21.38.58,26.32,13.23,26.32,13.23,2.88-1.01,5.48-1.73,7.83-2.22,1.09,1.27,2.16,2.57,3.2,3.88Z"/>
  <path class="cls-10" d="M235.43,225h-1.56c.1-.11.21-.2.31-.27.41.08.83.17,1.25.27Z"/>
  <path class="cls-10" d="M447,270c-3.27-16.08-9.11-31.23-17.08-45-3.72-6.44-7.91-12.58-12.53-18.37-1.04-1.31-2.11-2.61-3.2-3.88-7.19-8.45-15.3-16.08-24.19-22.75-25.06-18.84-56.23-30-90-30s-64.94,11.16-90,30c-3.95,2.97-7.75,6.12-11.38,9.46-11.23,10.29-20.87,22.27-28.54,35.54-7.13,12.3-12.55,25.71-15.95,39.9-.41,1.69-.78,3.39-1.13,5.1-1.97,9.69-3,19.73-3,30,0,5.06.25,10.06.74,15,1.57,15.86,5.62,30.99,11.74,45,2.12,4.85,4.49,9.56,7.09,14.12,4.8,8.44,10.4,16.36,16.69,23.67,2.14,2.48,4.35,4.88,6.63,7.21,8.7,8.89,18.51,16.69,29.19,23.2,22.71,13.83,49.38,21.8,77.92,21.8s55.21-7.97,77.92-21.8c10.68-6.51,20.49-14.31,29.19-23.2,12.69-12.93,23.05-28.16,30.41-45,2.28-5.23,4.28-10.61,5.96-16.13,2.83-9.27,4.79-18.93,5.78-28.87.43-4.3.67-8.65.73-13.04.01-.65.01-1.31.01-1.96,0-10.27-1.03-20.31-3-30ZM398.88,315c-.54,3.61-1.28,7.16-2.2,10.64-3.33,12.6-9.06,24.23-16.68,34.36-6.03,8.04-13.25,15.14-21.4,21.03-16.46,11.94-36.71,18.97-58.6,18.97s-42.14-7.03-58.6-18.97c-8.15-5.89-15.37-12.99-21.4-21.03-9.72-12.93-16.37-28.28-18.88-45-.74-4.89-1.12-9.9-1.12-15,0-5.95.52-11.78,1.52-17.44.75-4.29,1.78-8.48,3.06-12.56,1.86-5.93,4.26-11.62,7.14-17.01,5.66-10.62,13.19-20.1,22.15-27.99h1.56c-.42-.1-.84-.19-1.25-.27,4.83-4.25,10.07-8.02,15.66-11.25,14.74-8.58,31.88-13.48,50.16-13.48,25.36,0,48.51,9.43,66.13,25,13.5,11.9,23.77,27.4,29.29,45,2.98,9.47,4.58,19.55,4.58,30,0,2.45-.09,4.89-.26,7.3-.19,2.59-.48,5.16-.86,7.7Z"/>
</svg>