<?xml version="1.0" encoding="UTF-8"?>
<svg id="Layer_1" data-name="Layer 1" xmlns="http://www.w3.org/2000/svg" viewBox="0 0 600 600">
  <defs>
    <style>
      .cls-1 {
        fill: #d63f3a;
      }

      .cls-1, .cls-2, .cls-3, .cls-4, .cls-5, .cls-6, .cls-7, .cls-8, .cls-9, .cls-10, .cls-11, .cls-12 {
        stroke-width: 0px;
      }

      .cls-2 {
        fill: #00115b;
      }

      .cls-3 {
        fill: #ffce99;
      }

      .cls-4 {
        fill: #f26b2e;
      }

      .cls-13 {
        fill: none;
        stroke: #fff;
        stroke-miterlimit: 10;
        stroke-width: .5px;
      }

      .cls-5 {
        fill: #e94f36;
      }

      .cls-6 {
        fill: #1c0007;
      }

      .cls-7 {
        fill: #f78c3d;
      }

      .cls-8 {
        fill: #f8ab62;
      }

      .cls-9 {
        fill: #600b1b;
      }

      .cls-10 {
        fill: #8c2c3b;
      }

      .cls-11 {
        fill: #44000f;
      }

      .cls-12 {
        fill: #b5323e;
      }
    </style>
  </defs>
  <path class="cls-2" d="M526.62,496.57c-54.99,63.36-136.13,103.43-226.62,103.43s-171.63-40.07-226.62-103.43h72.13c42.52,33.47,96.17,53.43,154.49,53.43s111.97-19.96,154.49-53.43h72.13Z"/>
  <path class="cls-6" d="M145.51,496.57h-72.13c-12.49-14.39-23.63-29.98-33.23-46.57h61.8c-.52.19-1.06.35-1.6.49,13.01,17.23,28.2,32.73,45.16,46.08Z"/>
  <path class="cls-6" d="M559.85,450c-9.6,16.59-20.74,32.18-33.23,46.57h-72.13c17.12-13.48,32.44-29.14,45.53-46.57h59.83Z"/>
  <path class="cls-3" d="M99.98,450h-59.83c-8.28-14.3-15.41-29.34-21.25-45h54.15c2.3,4.96,4.76,9.84,7.37,14.62,5.79,10.62,12.34,20.77,19.56,30.38Z"/>
  <path class="cls-3" d="M581.1,405c-2.49,6.67-5.21,13.22-8.15,19.66l-.02.04c-1.24,2.7-2.51,5.38-3.83,8.04l-.06.12c-2.88,5.82-5.95,11.54-9.19,17.14h-59.83c4.16-5.54,8.1-11.26,11.79-17.14,1.7-2.7,3.35-5.43,4.94-8.2,3.68-6.38,7.09-12.94,10.2-19.66h54.15Z"/>
  <path class="cls-8" d="M73.05,405H18.9c-5.43-14.5-9.76-29.53-12.89-45h51.24c3.85,15.63,9.16,30.68,15.8,45Z"/>
  <path class="cls-8" d="M593.99,360c-3.13,15.47-7.46,30.5-12.89,45h-54.15c3.71-8,7-16.22,9.86-24.64,2.21-6.53,4.16-13.17,5.83-19.92l-.32-.44h51.67Z"/>
  <path class="cls-7" d="M57.25,360H6.01c-2.98-14.64-4.89-29.67-5.64-45h50.08c.9,15.42,3.21,30.46,6.8,45Z"/>
  <path class="cls-7" d="M599.63,315c-.75,15.33-2.66,30.36-5.64,45h-51.24c3.59-14.54,5.9-29.58,6.8-45h50.08Z"/>
  <path class="cls-4" d="M50,300c0,5.04.15,10.04.45,15H.37c-.25-4.97-.37-9.97-.37-15,0-10.13.5-20.14,1.49-30h50.3c-1.18,9.83-1.79,19.85-1.79,30Z"/>
  <path class="cls-4" d="M600,300c0,5.03-.12,10.03-.37,15h-50.08c.3-4.96.45-9.96.45-15,0-10.15-.61-20.17-1.79-30h50.3c.99,9.86,1.49,19.87,1.49,30Z"/>
  <path class="cls-5" d="M61.45,225c-.64,2.03-1.25,4.06-1.84,6.11-3.6,12.58-6.24,25.57-7.82,38.89H1.49c1.52-15.37,4.2-30.4,7.97-45h51.99Z"/>
  <path class="cls-5" d="M598.51,270h-50.3c-1.84-15.48-5.11-30.52-9.66-45h51.99c3.77,14.6,6.45,29.63,7.97,45Z"/>
  <path class="cls-1" d="M80.63,180c-3.99,7.26-7.62,14.75-10.88,22.42-3.11,7.36-5.89,14.89-8.3,22.58H9.46c3.99-15.52,9.19-30.56,15.5-45h55.67Z"/>
  <path class="cls-1" d="M590.54,225h-51.99c-4.93-15.73-11.38-30.78-19.18-45h55.67c6.31,14.44,11.51,29.48,15.5,45Z"/>
  <path class="cls-12" d="M112.18,135c-.19.21-.38.43-.56.64-7.84,8.97-15.05,18.51-21.56,28.55-3.33,5.14-6.48,10.42-9.43,15.81H24.96c6.88-15.75,15.08-30.79,24.45-45h62.77Z"/>
  <path class="cls-12" d="M575.04,180h-55.67c-8.86-16.17-19.46-31.25-31.55-45h62.77c9.37,14.21,17.57,29.25,24.45,45Z"/>
  <path class="cls-10" d="M164.29,90c-19.38,12.56-36.92,27.72-52.11,45h-62.77c10.67-16.16,22.85-31.23,36.35-45h78.53Z"/>
  <path class="cls-10" d="M550.59,135h-62.77c-15.19-17.28-32.73-32.44-52.11-45h78.53c13.5,13.77,25.68,28.84,36.35,45Z"/>
  <path class="cls-9" d="M514.24,90h-78.53c-39.08-25.31-85.68-40-135.71-40s-96.63,14.69-135.71,40h-78.53c16.8-17.14,35.64-32.27,56.13-45h316.22c20.49,12.73,39.33,27.86,56.13,45Z"/>
  <path class="cls-11" d="M458.11,45H141.89C187.8,16.47,241.98,0,300,0s112.2,16.47,158.11,45Z"/>
  <path class="cls-6" d="M69.75,202.42c-3.11,7.36-5.89,14.89-8.3,22.58-.64,2.03-1.25,4.06-1.84,6.11h-12.46c0-2.17.24-4.2.65-6.11,2.41-11.34,11.33-18.31,21.95-22.58Z"/>
  <path class="cls-6" d="M111.62,135.64c-7.84,8.97-15.05,18.51-21.56,28.55l-14.66-25.66c7.26-7.93,30.72.5,30.72.5l-3.45-4.03-1.51-1.76c3.31-.19,6.36.51,9.14,1.76.45.2.89.41,1.32.64Z"/>
  <path class="cls-6" d="M563.02,388.43s-14.08,2.23-26.21-8.07c2.21-6.53,4.16-13.17,5.83-19.92l20.38,27.99Z"/>
  <path class="cls-6" d="M572.95,424.66l-.02.04-3.83,8.04-.06.12h-57.23c1.7-2.7,3.35-5.43,4.94-8.2h56.2Z"/>
  <path class="cls-6" d="M101.95,450c-.52.19-1.06.35-1.6.49-1.53.39-3.14.6-4.8.6-2.24,0-4.4-.38-6.4-1.09-7.56-2.64-12.97-9.82-12.97-18.28,0-4.58,1.59-8.78,4.24-12.1,5.79,10.62,12.34,20.77,19.56,30.38h1.97Z"/>
  <path class="cls-13" d="M101.95,450c-.52.19-1.06.35-1.6.49-.13-.16-.25-.32-.37-.49h1.97Z"/>
  <path class="cls-13" d="M542.75,360c-.03.15-.07.29-.11.44l-.32-.44h.43Z"/>
</svg>