<?xml version="1.0" encoding="UTF-8"?>
<svg id="Layer_1" data-name="Layer 1" xmlns="http://www.w3.org/2000/svg" viewBox="0 0 600 600">
  <defs>
    <style>
      .cls-1 {
        fill: #d63f3a;
      }

      .cls-1, .cls-2, .cls-3, .cls-4, .cls-5, .cls-6, .cls-7, .cls-8, .cls-9, .cls-10, .cls-11, .cls-12 {
        stroke-width: 0px;
      }

      .cls-2 {
        fill: #00115b;
      }

      .cls-3 {
        fill: #ffce99;
      }

      .cls-4 {
        fill: #f26b2e;
      }

      .cls-5 {
        fill: #e94f36;
      }

      .cls-6 {
        fill: #1c0007;
      }

      .cls-7 {
        fill: #f78c3d;
      }

      .cls-8 {
        fill: #f8ab62;
      }

      .cls-9 {
        fill: #600b1b;
      }

      .cls-10 {
        fill: #8c2c3b;
      }

      .cls-11 {
        fill: #44000f;
      }

      .cls-12 {
        fill: #b5323e;
      }
    </style>
  </defs>
  <path class="cls-2" d="M526.62,496.57c-54.99,63.36-136.13,103.43-226.62,103.43s-171.63-40.07-226.62-103.43h71.3c44.06,34.96,98.23,53.93,155.32,53.93s111.26-18.97,155.32-53.93h71.3Z"/>
  <path class="cls-6" d="M144.68,496.57h-71.3c-12.49-14.39-23.63-29.98-33.23-46.57h59.17c.15.21.31.41.47.62,7.01,9.28,14.71,18.14,23.08,26.51,6.94,6.94,14.23,13.43,21.81,19.44Z"/>
  <path class="cls-6" d="M559.85,450c-9.6,16.59-20.74,32.18-33.23,46.57h-71.3c7.58-6.01,14.87-12.5,21.81-19.44,8.55-8.55,16.42-17.62,23.55-27.13h59.17Z"/>
  <path class="cls-3" d="M99.32,450h-59.17c-8.28-14.3-15.41-29.34-21.25-45h53.52c2.36,5.12,4.9,10.16,7.62,15.11,5.68,10.36,12.11,20.35,19.28,29.89Z"/>
  <path class="cls-3" d="M581.1,405c-2.49,6.67-5.21,13.22-8.15,19.66l-.46.97c-1.09,2.4-2.23,4.75-3.39,7.11l-.06.12c-2.88,5.82-5.95,11.54-9.19,17.14h-59.17c4.18-5.57,8.11-11.28,11.79-17.14,1.7-2.7,3.35-5.44,4.93-8.2,3.69-6.41,7.09-12.96,10.18-19.66h53.52Z"/>
  <path class="cls-8" d="M72.42,405H18.9c-5.43-14.5-9.76-29.53-12.89-45h50.69c3.78,15.51,9.05,30.56,15.72,45Z"/>
  <path class="cls-8" d="M593.99,360c-3.13,15.47-7.46,30.5-12.89,45h-53.52c3.65-7.91,6.89-16.01,9.69-24.26,2.2-6.48,4.13-13.05,5.79-19.72h0c.08-.35.17-.68.24-1.02h50.69Z"/>
  <path class="cls-7" d="M56.7,360H6.01c-2.98-14.64-4.89-29.67-5.64-45h49.58c.89,15.31,3.16,30.36,6.75,45Z"/>
  <path class="cls-7" d="M599.63,315c-.75,15.33-2.66,30.36-5.64,45h-50.69c3.59-14.64,5.86-29.69,6.75-45h49.58Z"/>
  <path class="cls-4" d="M49.5,300c0,5.03.15,10.03.45,15H.37c-.25-4.97-.37-9.97-.37-15,0-10.13.5-20.14,1.49-30h49.78c-1.18,9.88-1.77,19.89-1.77,30Z"/>
  <path class="cls-4" d="M600,300c0,5.03-.12,10.03-.37,15h-49.58c.3-4.97.45-9.97.45-15,0-10.11-.59-20.12-1.77-30h49.78c.99,9.86,1.49,19.87,1.49,30Z"/>
  <path class="cls-5" d="M60.86,225c-.63,2.03-1.24,4.06-1.82,6.11-3.6,12.66-6.2,25.66-7.77,38.89H1.49c1.52-15.37,4.2-30.4,7.97-45h51.4Z"/>
  <path class="cls-5" d="M598.51,270h-49.78c-1.82-15.37-5.04-30.42-9.59-45h51.4c3.77,14.6,6.45,29.63,7.97,45Z"/>
  <path class="cls-1" d="M79.98,180c-4.05,7.39-7.71,14.97-10.97,22.72-3.07,7.29-5.79,14.72-8.15,22.28H9.46c3.99-15.52,9.19-30.56,15.5-45h55.02Z"/>
  <path class="cls-1" d="M590.54,225h-51.4c-4.87-15.59-11.27-30.66-19.12-45h55.02c6.31,14.44,11.51,29.48,15.5,45Z"/>
  <path class="cls-12" d="M111.51,135c-.13.13-.24.27-.36.4-7.84,8.97-14.98,18.41-21.39,28.25-3.48,5.34-6.74,10.79-9.78,16.35H24.96c6.88-15.75,15.08-30.79,24.45-45h62.1Z"/>
  <path class="cls-12" d="M575.04,180h-55.02c-8.74-15.98-19.29-31.06-31.53-45h62.1c9.37,14.21,17.57,29.25,24.45,45Z"/>
  <path class="cls-10" d="M163.29,90c-14.41,9.42-27.96,20.41-40.42,32.87-3.94,3.94-7.73,7.98-11.36,12.13h-62.1c10.67-16.16,22.85-31.23,36.35-45h77.53Z"/>
  <path class="cls-10" d="M550.59,135h-62.1c-3.63-4.15-7.42-8.19-11.36-12.13-12.46-12.46-26.01-23.45-40.42-32.87h77.53c13.5,13.77,25.68,28.84,36.35,45Z"/>
  <path class="cls-9" d="M514.24,90h-77.53c-40.31-26.36-87.43-40.5-136.71-40.5s-96.4,14.14-136.71,40.5h-77.53c16.8-17.14,35.64-32.27,56.13-45h316.22c20.49,12.73,39.33,27.86,56.13,45Z"/>
  <path class="cls-11" d="M458.11,45H141.89C187.8,16.47,241.98,0,300,0s112.2,16.47,158.11,45Z"/>
  <path class="cls-6" d="M111.15,135.4c-7.84,8.97-14.98,18.41-21.39,28.25l-14.36-25.12c7.26-7.93,30.72.5,30.72.5l-3.45-4.03-1.51-1.76c3.31-.19,6.36.51,9.14,1.76.29.12.57.26.85.4Z"/>
  <path class="cls-6" d="M69.01,202.72c-3.07,7.29-5.79,14.72-8.15,22.28-.63,2.03-1.24,4.06-1.82,6.11h-11.89c0-2.17.24-4.2.65-6.11,2.35-11.08,10.92-17.98,21.21-22.28Z"/>
  <path class="cls-6" d="M563.02,388.43s-13.73,2.17-25.75-7.69c2.2-6.48,4.13-13.05,5.79-19.72l19.96,27.41Z"/>
  <path class="cls-6" d="M572.95,424.66l-.46.97-3.39,7.11-.06.12h-56.57c1.7-2.7,3.35-5.44,4.93-8.2h55.55Z"/>
  <path class="cls-6" d="M99.79,450.62c-1.36.31-2.78.47-4.24.47-2.24,0-4.4-.38-6.4-1.09-7.56-2.64-12.97-9.82-12.97-18.28,0-4.36,1.44-8.38,3.86-11.61,5.68,10.36,12.11,20.35,19.28,29.89.15.21.31.41.47.62Z"/>
</svg>