<?xml version="1.0" encoding="UTF-8"?>
<svg id="Layer_1" data-name="Layer 1" xmlns="http://www.w3.org/2000/svg" viewBox="0 0 600 600">
  <defs>
    <style>
      .cls-1 {
        fill: #f26b2e;
      }

      .cls-1, .cls-2, .cls-3 {
        stroke-width: 0px;
      }

      .cls-4 {
        fill: none;
        stroke: #fff;
        stroke-miterlimit: 10;
        stroke-width: .5px;
      }

      .cls-2 {
        fill: #e94f36;
      }

      .cls-3 {
        fill: #f78c3d;
      }
    </style>
  </defs>
  <path class="cls-3" d="M347.7,315c-6.37,20.29-25.32,35-47.7,35s-41.33-14.71-47.7-35h95.4Z"/>
  <path class="cls-1" d="M350,300c0,5.23-.8,10.27-2.3,15h-95.4c-1.5-4.73-2.3-9.77-2.3-15,0-11.25,3.72-21.64,10.01-30h79.98c6.29,8.36,10.01,18.75,10.01,30Z"/>
  <path class="cls-2" d="M339.99,270h-79.98c9.12-12.15,23.64-20,39.99-20s30.87,7.85,39.99,20Z"/>
  <path class="cls-4" d="M350,300c0,5.23-.8,10.27-2.3,15-6.37,20.29-25.32,35-47.7,35s-41.33-14.71-47.7-35c-1.5-4.73-2.3-9.77-2.3-15,0-11.25,3.72-21.64,10.01-30,9.12-12.15,23.64-20,39.99-20s30.87,7.85,39.99,20c6.29,8.36,10.01,18.75,10.01,30Z"/>
  <path class="cls-4" d="M350,300c0,5.23-.8,10.27-2.3,15-6.37,20.29-25.32,35-47.7,35s-41.33-14.71-47.7-35c-1.5-4.73-2.3-9.77-2.3-15,0-11.25,3.72-21.64,10.01-30,9.12-12.15,23.64-20,39.99-20s30.87,7.85,39.99,20c6.29,8.36,10.01,18.75,10.01,30Z"/>
  <path class="cls-4" d="M350,300c0,5.23-.8,10.27-2.3,15-6.37,20.29-25.32,35-47.7,35s-41.33-14.71-47.7-35c-1.5-4.73-2.3-9.77-2.3-15,0-11.25,3.72-21.64,10.01-30,9.12-12.15,23.64-20,39.99-20s30.87,7.85,39.99,20c6.29,8.36,10.01,18.75,10.01,30Z"/>
  <path class="cls-4" d="M350,300c0,5.23-.8,10.27-2.3,15-6.37,20.29-25.32,35-47.7,35s-41.33-14.71-47.7-35c-1.5-4.73-2.3-9.77-2.3-15,0-11.25,3.72-21.64,10.01-30,9.12-12.15,23.64-20,39.99-20s30.87,7.85,39.99,20c6.29,8.36,10.01,18.75,10.01,30Z"/>
  <path class="cls-4" d="M350,300c0,5.23-.8,10.27-2.3,15-6.37,20.29-25.32,35-47.7,35s-41.33-14.71-47.7-35c-1.5-4.73-2.3-9.77-2.3-15,0-11.25,3.72-21.64,10.01-30,9.12-12.15,23.64-20,39.99-20s30.87,7.85,39.99,20c6.29,8.36,10.01,18.75,10.01,30Z"/>
</svg>