<?xml version="1.0" encoding="UTF-8"?>
<svg id="Layer_1" data-name="Layer 1" xmlns="http://www.w3.org/2000/svg" viewBox="0 0 600 600">
  <defs>
    <style>
      .cls-1 {
        fill: #d63f3a;
      }

      .cls-1, .cls-2, .cls-3, .cls-4, .cls-5, .cls-6, .cls-7 {
        stroke-width: 0px;
      }

      .cls-2 {
        fill: #fceed8;
      }

      .cls-3 {
        fill: #f26b2e;
      }

      .cls-8 {
        fill: none;
        stroke: #fff;
        stroke-miterlimit: 10;
        stroke-width: .5px;
      }

      .cls-4 {
        fill: #e94f36;
      }

      .cls-5 {
        fill: #1c0007;
      }

      .cls-6 {
        fill: #f78c3d;
      }

      .cls-7 {
        fill: #f8ab62;
      }
    </style>
  </defs>
  <path class="cls-7" d="M380,360c-6.03,8.04-13.25,15.14-21.4,21.03-16.46,11.94-36.71,18.97-58.6,18.97s-42.14-7.03-58.6-18.97c-8.15-5.89-15.37-12.99-21.4-21.03h160Z"/>
  <path class="cls-6" d="M398.88,315c-.54,3.61-1.28,7.16-2.2,10.64-3.33,12.6-9.06,24.23-16.68,34.36h-160c-9.72-12.93-16.37-28.28-18.88-45h51.18c6.37,20.29,25.32,35,47.7,35s41.33-14.71,47.7-35h51.18Z"/>
  <path class="cls-3" d="M250,300c0,5.23.8,10.27,2.3,15h-51.18c-.74-4.89-1.12-9.9-1.12-15,0-5.94.52-11.77,1.52-17.42v-.02c.75-4.29,1.78-8.48,3.06-12.56h55.43c-6.29,8.36-10.01,18.75-10.01,30Z"/>
  <path class="cls-3" d="M400,300c0,2.45-.09,4.89-.26,7.3-.19,2.59-.48,5.16-.86,7.7h-51.18c1.5-4.73,2.3-9.77,2.3-15,0-11.25-3.72-21.64-10.01-30h55.43c2.98,9.47,4.58,19.55,4.58,30Z"/>
  <path class="cls-4" d="M395.42,270h-55.43c-9.12-12.15-23.64-20-39.99-20s-30.87,7.85-39.99,20h-55.43c1.86-5.93,4.26-11.62,7.14-17.01,5.66-10.62,13.19-20.1,22.15-27.99h132.26c13.5,11.9,23.77,27.4,29.29,45Z"/>
  <path class="cls-1" d="M366.13,225h-132.26c.1-.11.21-.2.31-.27,4.83-4.25,10.07-8.02,15.66-11.25,14.74-8.58,31.88-13.48,50.16-13.48,25.36,0,48.51,9.43,66.13,25Z"/>
  <path class="cls-5" d="M218.86,311.64l-18.59-17.35c1.3-2,1.47-7.19,1.25-11.71v-.02c.75-4.29,1.78-8.48,3.06-12.56,1.86-5.93,4.26-11.62,7.14-17.01,4.9,5.46,8.04,11.26,9.94,17.01,7.02,21.2-2.8,41.64-2.8,41.64Z"/>
  <path class="cls-5" d="M253.63,234.17c-3.92-5.04-11.95-7.76-18.2-9.17-.42-.1-.84-.19-1.25-.27,4.83-4.25,10.07-8.02,15.66-11.25,1.51,4.14,2.41,8.15,2.96,11.52.88,5.41.83,9.17.83,9.17Z"/>
  <path class="cls-5" d="M399.74,307.3c-.19,2.59-.48,5.16-.86,7.7-.54,3.61-1.28,7.16-2.2,10.64-5.07-1.92-9.96-5.18-13.17-10.64-.99-1.69-1.82-3.59-2.45-5.72l18.68-1.98Z"/>
  <path class="cls-2" d="M358.6,381.03c-16.46,11.94-36.71,18.97-58.6,18.97s-42.14-7.03-58.6-18.97c8.08-9.18,18.28-16.45,29.84-21.03,8.9-3.54,18.6-5.48,28.76-5.48s19.86,1.94,28.76,5.48c11.56,4.58,21.76,11.85,29.84,21.03Z"/>
  <path class="cls-8" d="M395.42,270c-5.52-17.6-15.79-33.1-29.29-45-17.62-15.57-40.77-25-66.13-25-18.28,0-35.42,4.9-50.16,13.48-5.59,3.23-10.83,7-15.66,11.25-.1.07-.21.16-.31.27-8.96,7.89-16.49,17.37-22.15,27.99-2.88,5.39-5.28,11.08-7.14,17.01-1.28,4.08-2.31,8.27-3.06,12.56v.02c-1,5.65-1.52,11.48-1.52,17.42,0,5.1.38,10.11,1.12,15,2.51,16.72,9.16,32.07,18.88,45,6.03,8.04,13.25,15.14,21.4,21.03,16.46,11.94,36.71,18.97,58.6,18.97s42.14-7.03,58.6-18.97c8.15-5.89,15.37-12.99,21.4-21.03,7.62-10.13,13.35-21.76,16.68-34.36.92-3.48,1.66-7.03,2.2-10.64.38-2.54.67-5.11.86-7.7.17-2.41.26-4.85.26-7.3,0-10.45-1.6-20.53-4.58-30ZM250,300c0-11.25,3.72-21.64,10.01-30,9.12-12.15,23.64-20,39.99-20s30.87,7.85,39.99,20c6.29,8.36,10.01,18.75,10.01,30,0,5.23-.8,10.27-2.3,15-6.37,20.29-25.32,35-47.7,35s-41.33-14.71-47.7-35c-1.5-4.73-2.3-9.77-2.3-15Z"/>
  <path class="cls-8" d="M395.42,270c-5.52-17.6-15.79-33.1-29.29-45-17.62-15.57-40.77-25-66.13-25-18.28,0-35.42,4.9-50.16,13.48-5.59,3.23-10.83,7-15.66,11.25-.1.07-.21.16-.31.27-8.96,7.89-16.49,17.37-22.15,27.99-2.88,5.39-5.28,11.08-7.14,17.01-1.28,4.08-2.31,8.27-3.06,12.56v.02c-1,5.65-1.52,11.48-1.52,17.42,0,5.1.38,10.11,1.12,15,2.51,16.72,9.16,32.07,18.88,45,6.03,8.04,13.25,15.14,21.4,21.03,16.46,11.94,36.71,18.97,58.6,18.97s42.14-7.03,58.6-18.97c8.15-5.89,15.37-12.99,21.4-21.03,7.62-10.13,13.35-21.76,16.68-34.36.92-3.48,1.66-7.03,2.2-10.64.38-2.54.67-5.11.86-7.7.17-2.41.26-4.85.26-7.3,0-10.45-1.6-20.53-4.58-30ZM250,300c0-11.25,3.72-21.64,10.01-30,9.12-12.15,23.64-20,39.99-20s30.87,7.85,39.99,20c6.29,8.36,10.01,18.75,10.01,30,0,5.23-.8,10.27-2.3,15-6.37,20.29-25.32,35-47.7,35s-41.33-14.71-47.7-35c-1.5-4.73-2.3-9.77-2.3-15Z"/>
</svg>