<?xml version="1.0" encoding="UTF-8"?>
<svg id="Layer_1" data-name="Layer 1" xmlns="http://www.w3.org/2000/svg" viewBox="0 0 600 600">
  <defs>
    <style>
      .cls-1 {
        fill: #d63f3a;
      }

      .cls-1, .cls-2, .cls-3, .cls-4, .cls-5, .cls-6, .cls-7, .cls-8, .cls-9, .cls-10, .cls-11 {
        stroke-width: 0px;
      }

      .cls-2 {
        fill: #fceed8;
      }

      .cls-3 {
        fill: #00115b;
      }

      .cls-4 {
        fill: #ffce99;
      }

      .cls-5 {
        fill: #f26b2e;
      }

      .cls-12 {
        fill: none;
        stroke: #fff;
        stroke-miterlimit: 10;
        stroke-width: .5px;
      }

      .cls-6 {
        fill: #e94f36;
      }

      .cls-7 {
        fill: #1c0007;
      }

      .cls-8 {
        fill: #f78c3d;
      }

      .cls-9 {
        fill: #f8ab62;
      }

      .cls-10 {
        fill: #8c2c3b;
      }

      .cls-11 {
        fill: #b5323e;
      }
    </style>
  </defs>
  <path class="cls-3" d="M300,500c-12.66,0-25.05-1.18-37.06-3.43h74.12c-12.01,2.25-24.4,3.43-37.06,3.43Z"/>
  <path class="cls-7" d="M432.29,450c-.6.53-1.2,1.06-1.81,1.57-26.13,22.52-58.14,38.39-93.42,45h-74.12c-35.64-6.67-67.95-22.8-94.22-45.69-.34-.29-.68-.59-1.01-.88h264.58Z"/>
  <path class="cls-4" d="M300,450h-132.29c-3.64-3.21-7.16-6.55-10.55-10.02-10.38-10.58-19.58-22.31-27.41-34.98h63.14c8.7,8.89,18.51,16.69,29.19,23.2,22.71,13.83,49.38,21.8,77.92,21.8Z"/>
  <path class="cls-4" d="M470.25,405c-9.19,14.87-20.27,28.44-32.91,40.39-1.66,1.56-3.34,3.1-5.05,4.61h-132.29c28.54,0,55.21-7.97,77.92-21.8,10.68-6.51,20.49-14.31,29.19-23.2h63.14Z"/>
  <path class="cls-9" d="M192.89,405h-63.14c-8.63-13.95-15.58-29.04-20.59-45h53.32c2.12,4.85,4.49,9.56,7.09,14.12,4.8,8.44,10.4,16.36,16.69,23.67,2.14,2.48,4.35,4.88,6.63,7.21Z"/>
  <path class="cls-9" d="M490.84,360c-.2.67-.42,1.33-.63,1.99-4.96,15.22-11.69,29.64-19.96,43.01h-63.14c12.69-12.93,23.05-28.16,30.41-45h53.32Z"/>
  <path class="cls-8" d="M162.48,360h-53.32c-4.52-14.37-7.45-29.43-8.61-45h50.19c1.57,15.86,5.62,30.99,11.74,45Z"/>
  <path class="cls-8" d="M449.26,315h50.19c-1.16,15.57-4.09,30.63-8.61,45h-53.32c2.28-5.23,4.28-10.61,5.96-16.13,2.83-9.27,4.79-18.93,5.78-28.87Z"/>
  <path class="cls-5" d="M150,300c0,5.06.25,10.06.74,15h-50.19c-.36-4.95-.55-9.95-.55-15,0-.43,0-.87.01-1.3.06-9.75.82-19.33,2.22-28.7h50.77c-1.97,9.69-3,19.73-3,30Z"/>
  <path class="cls-5" d="M500,300c0,.62,0,1.24-.01,1.86-.04,4.41-.22,8.8-.54,13.14h-50.19c.43-4.3.67-8.65.73-13.04.01-.65.01-1.31.01-1.96,0-10.27-1.03-20.31-3-30h50.77c1.47,9.79,2.23,19.8,2.23,30Z"/>
  <path class="cls-6" d="M170.08,225c-7.13,12.3-12.55,25.71-15.95,39.9-.41,1.69-.78,3.39-1.13,5.1h-50.77c.63-4.16,1.39-8.29,2.27-12.36.18-.86.37-1.72.57-2.57.48-2.11,1-4.21,1.56-6.3,1.71-6.5,3.74-12.87,6.08-19.09.59-1.57,1.2-3.13,1.83-4.68h55.54Z"/>
  <path class="cls-6" d="M485.46,225c5.77,14.26,9.95,29.33,12.31,45h-50.77c-3.27-16.08-9.11-31.23-17.08-45h55.54Z"/>
  <path class="cls-1" d="M210,180c-3.95,2.97-7.75,6.12-11.38,9.46-11.23,10.29-20.87,22.27-28.54,35.54h-55.54c6.54-16.16,15.13-31.27,25.45-45h70.01Z"/>
  <path class="cls-1" d="M485.46,225h-55.54c-3.72-6.44-7.91-12.58-12.53-18.37-1.04-1.31-2.11-2.61-3.2-3.88-7.19-8.45-15.3-16.08-24.19-22.75h70.01c2.76,3.67,5.4,7.44,7.9,11.3.42.64.82,1.28,1.23,1.92,6.34,10.02,11.82,20.65,16.32,31.78Z"/>
  <path class="cls-11" d="M460.01,180h-70.01c-25.06-18.84-56.23-30-90-30s-64.94,11.16-90,30h-70.01c13.09-17.43,28.96-32.65,46.95-45h226.12c17.99,12.35,33.86,27.57,46.95,45Z"/>
  <path class="cls-10" d="M413.06,135h-226.12c7.08-4.86,14.49-9.28,22.19-13.21,27.26-13.93,58.15-21.79,90.87-21.79,41.96,0,80.9,12.92,113.06,35Z"/>
  <path class="cls-7" d="M186.26,397.79c-.2,2.46-.42,4.86-.67,7.21-2.46,23.48-7.2,40.97-8.35,45-.17.58-.26.88-.26.88h-8.26c-.34-.29-.68-.59-1.01-.88-3.64-3.21-7.16-6.55-10.55-10.02,4.86-10.15,7.93-22.43,9.82-34.98,1.57-10.46,2.32-21.11,2.59-30.88,4.8,8.44,10.4,16.36,16.69,23.67Z"/>
  <path class="cls-7" d="M217.12,129.53c-2,.45-4.09,2.47-6.21,5.47-8.14,11.51-16.61,37.5-20.99,45-.71,1.21-1.31,1.94-1.79,2.05-4.21,1-12.14,4.71-12.14,4.71,0,0,8.43,2.23,7.43,2.23s-6.75,15.13-6.92,15.6c7.31-8.16,15.99-12.72,22.12-15.13-11.23,10.29-20.87,22.27-28.54,35.54-7.13,12.3-12.55,25.71-15.95,39.9-4.16,1.06-8.46,3.07-12.12,5.1-5.35,2.97-9.3,5.96-9.3,5.96-.58-.75-.74-3.47-.76-5.96-.02-2.41.1-4.61.1-4.61-.7.56-1.37,2.37-1.94,4.61-1.31,5.08-2.19,12.4-2.19,12.4-5.94,1.98-22.79,21.31-22.79,21.31-2.08-.66-3.76-2.48-5.12-5.01.06-9.75.82-19.33,2.22-28.7.63-4.16,1.39-8.29,2.27-12.36l2.86-2-2.29-.57c.48-2.11,1-4.21,1.56-6.3l17.83-18.4-11.75-.69c.59-1.57,1.2-3.13,1.83-4.68,6.54-16.16,15.13-31.27,25.45-45,13.09-17.43,28.96-32.65,46.95-45,7.08-4.86,14.49-9.28,22.19-13.21,6.39,2.18,7.99,7.74,7.99,7.74Z"/>
  <path class="cls-7" d="M499.99,301.86c-.04,4.41-.22,8.8-.54,13.14-1.16,15.57-4.09,30.63-8.61,45-.2.67-.42,1.33-.63,1.99-4.3.1-10.59-.14-15.21-1.99-1.65-.65-3.09-1.52-4.15-2.64,0,0-.52.91-1.44,2.64-3.24,6.07-11.45,22.27-19.75,45-4.31,11.85-8.66,25.49-12.32,40.39-1.66,1.56-3.34,3.1-5.05,4.61-.6.53-1.2,1.06-1.81,1.57h-4.15l.37-1.57.23-.98s6.3-21.43,13.97-44.02c5.91-17.37,12.62-35.44,17.92-45,1.83-3.29,3.48-5.57,4.88-6.47,0,0-9.2-6.38-9.07-9.96,0,0-4.78.9-11.15.3,2.83-9.27,4.79-18.93,5.78-28.87.43-4.3.67-8.65.73-13.04l46.47-4.94,3.53,4.84Z"/>
  <path class="cls-2" d="M300,450h-76.09c-1.27-5.61-1.95-11.45-1.95-17.44,0-1.46.04-2.92.12-4.36,22.71,13.83,49.38,21.8,77.92,21.8Z"/>
  <path class="cls-2" d="M378.04,432.56c0,5.99-.68,11.83-1.95,17.44h-76.09c28.54,0,55.21-7.97,77.92-21.8.08,1.44.12,2.9.12,4.36Z"/>
  <path class="cls-7" d="M432.82,204.54c-5.76-.6-11.06.49-15.43,2.09-1.04-1.31-2.11-2.61-3.2-3.88,13.56-2.86,18.63,1.79,18.63,1.79Z"/>
  <path class="cls-7" d="M469.14,193.22c-8.62.91-14.88,6.26-14.88,6.26-3.66-8.26-18.31-15.48-18.31-15.48,15.39.42,18.94,9.52,18.94,9.52,5.77-2.02,10.02-2.44,13.02-2.22.42.64.82,1.28,1.23,1.92Z"/>
  <path class="cls-7" d="M413.24,174.16s13.12-11.22,29.72-9.49c0,0-7.59-6.96-28.77.47,0,0-5.38-13.75-28.61-14.39,0,0,22.13,10.91,27.67,23.4Z"/>
  <path class="cls-12" d="M497.77,270c-2.36-15.67-6.54-30.74-12.31-45-4.5-11.13-9.98-21.76-16.32-31.78-.41-.64-.81-1.28-1.23-1.92-2.5-3.86-5.14-7.63-7.9-11.3-13.09-17.43-28.96-32.65-46.95-45-32.16-22.08-71.1-35-113.06-35-32.72,0-63.61,7.86-90.87,21.79-7.7,3.93-15.11,8.35-22.19,13.21-17.99,12.35-33.86,27.57-46.95,45-10.32,13.73-18.91,28.84-25.45,45-.63,1.55-1.24,3.11-1.83,4.68-2.34,6.22-4.37,12.59-6.08,19.09-.56,2.09-1.08,4.19-1.56,6.3-.2.85-.39,1.71-.57,2.57-.88,4.07-1.64,8.2-2.27,12.36-1.4,9.37-2.16,18.95-2.22,28.7-.01.43-.01.87-.01,1.3,0,5.05.19,10.05.55,15,1.16,15.57,4.09,30.63,8.61,45,5.01,15.96,11.96,31.05,20.59,45,7.83,12.67,17.03,24.4,27.41,34.98,3.39,3.47,6.91,6.81,10.55,10.02.33.29.67.59,1.01.88,26.27,22.89,58.58,39.02,94.22,45.69,12.01,2.25,24.4,3.43,37.06,3.43s25.05-1.18,37.06-3.43c35.28-6.61,67.29-22.48,93.42-45,.61-.51,1.21-1.04,1.81-1.57,1.71-1.51,3.39-3.05,5.05-4.61,12.64-11.95,23.72-25.52,32.91-40.39,8.27-13.37,15-27.79,19.96-43.01.21-.66.43-1.32.63-1.99,4.52-14.37,7.45-29.43,8.61-45,.32-4.34.5-8.73.54-13.14.01-.62.01-1.24.01-1.86,0-10.2-.76-20.21-2.23-30ZM443.48,343.87c-1.68,5.52-3.68,10.9-5.96,16.13-7.36,16.84-17.72,32.07-30.41,45-8.7,8.89-18.51,16.69-29.19,23.2-22.71,13.83-49.38,21.8-77.92,21.8s-55.21-7.97-77.92-21.8c-10.68-6.51-20.49-14.31-29.19-23.2-2.28-2.33-4.49-4.73-6.63-7.21-6.29-7.31-11.89-15.23-16.69-23.67-2.6-4.56-4.97-9.27-7.09-14.12-6.12-14.01-10.17-29.14-11.74-45-.49-4.94-.74-9.94-.74-15,0-10.27,1.03-20.31,3-30,.35-1.71.72-3.41,1.13-5.1,3.4-14.19,8.82-27.6,15.95-39.9,7.67-13.27,17.31-25.25,28.54-35.54,3.63-3.34,7.43-6.49,11.38-9.46,25.06-18.84,56.23-30,90-30s64.94,11.16,90,30c8.89,6.67,17,14.3,24.19,22.75,1.09,1.27,2.16,2.57,3.2,3.88,4.62,5.79,8.81,11.93,12.53,18.37,7.97,13.77,13.81,28.92,17.08,45,1.97,9.69,3,19.73,3,30,0,.65,0,1.31-.01,1.96-.06,4.39-.3,8.74-.73,13.04-.99,9.94-2.95,19.6-5.78,28.87Z"/>
</svg>