<?xml version="1.0" encoding="UTF-8"?>
<svg id="Layer_1" data-name="Layer 1" xmlns="http://www.w3.org/2000/svg" viewBox="0 0 600 600">
  <defs>
    <style>
      .cls-1 {
        fill: #d63f3a;
      }

      .cls-1, .cls-2, .cls-3, .cls-4, .cls-5, .cls-6, .cls-7 {
        stroke-width: 0px;
      }

      .cls-2 {
        fill: #fceed8;
      }

      .cls-3 {
        fill: #f26b2e;
      }

      .cls-4 {
        fill: #e94f36;
      }

      .cls-5 {
        fill: #1c0007;
      }

      .cls-6 {
        fill: #f78c3d;
      }

      .cls-7 {
        fill: #f8ab62;
      }
    </style>
  </defs>
  <path class="cls-7" d="M220.69,360h158.62c-5.96,7.87-13.07,14.83-21.07,20.62-16.38,11.88-36.51,18.88-58.24,18.88s-41.86-7-58.24-18.88c-8-5.79-15.11-12.75-21.07-20.62Z"/>
  <path class="cls-6" d="M398.37,315c-.54,3.55-1.27,7.04-2.18,10.45-3.35,12.68-9.16,24.38-16.88,34.55h-158.62c-9.8-12.91-16.52-28.28-19.06-45h50.14c6.41,20.55,25.6,35.5,48.23,35.5s41.82-14.95,48.23-35.5h50.14Z"/>
  <path class="cls-3" d="M249.5,300c0,5.22.8,10.26,2.27,15h-50.14c-.74-4.89-1.13-9.9-1.13-15,0-1.8.05-3.59.15-5.36.02-.44.04-.88.08-1.32.17-2.72.46-5.41.86-8.06v-.06c.78-5.21,1.97-10.29,3.54-15.2h54.27c-6.22,8.39-9.9,18.78-9.9,30Z"/>
  <path class="cls-3" d="M399.5,300c0,2.47-.09,4.93-.27,7.35-.19,2.58-.48,5.13-.86,7.65h-50.14c1.47-4.74,2.27-9.78,2.27-15,0-11.22-3.68-21.61-9.9-30h54.27c3.01,9.47,4.63,19.55,4.63,30Z"/>
  <path class="cls-4" d="M394.87,270h-54.27c-9.21-12.43-23.98-20.5-40.6-20.5s-31.39,8.07-40.6,20.5h-54.27c1.82-5.77,4.16-11.32,6.97-16.58,5.75-10.81,13.44-20.44,22.6-28.42h130.6c13.62,11.86,23.99,27.38,29.57,45Z"/>
  <path class="cls-1" d="M300,200.5c24.97,0,47.81,9.24,65.3,24.5h-130.6s.1-.1.15-.13c4.69-4.08,9.77-7.73,15.17-10.88,14.7-8.57,31.77-13.49,49.98-13.49Z"/>
  <path class="cls-5" d="M218.86,311.64l-18.21-17c.02-.44.04-.88.08-1.32.68-1.87.9-4.94.86-8.06v-.06c.78-5.21,1.97-10.29,3.54-15.2,1.82-5.77,4.16-11.32,6.97-16.58,4.69,5.34,7.71,10.98,9.56,16.58,7.02,21.2-2.8,41.64-2.8,41.64Z"/>
  <path class="cls-5" d="M253.63,234.17c-3.92-5.04-11.95-7.76-18.2-9.17-.2-.05-.39-.09-.58-.13,4.69-4.08,9.77-7.73,15.17-10.88,1.4,3.96,2.26,7.78,2.78,11.01.88,5.41.83,9.17.83,9.17Z"/>
  <path class="cls-5" d="M398.37,315c-.54,3.55-1.27,7.04-2.18,10.45-4.9-1.94-9.58-5.16-12.68-10.45-.99-1.69-1.82-3.59-2.45-5.72l18.17-1.93c-.19,2.58-.48,5.13-.86,7.65Z"/>
  <path class="cls-2" d="M300,399.5c-21.73,0-41.86-7-58.24-18.88,8.02-8.99,18.09-16.11,29.48-20.62,8.9-3.54,18.6-5.48,28.76-5.48s19.86,1.94,28.76,5.48c11.39,4.51,21.46,11.63,29.48,20.62-16.38,11.88-36.51,18.88-58.24,18.88Z"/>
</svg>