<?xml version="1.0" encoding="UTF-8"?>
<svg id="Layer_1" data-name="Layer 1" xmlns="http://www.w3.org/2000/svg" viewBox="0 0 600 600">
  <defs>
    <style>
      .cls-1 {
        fill: #d63f3a;
      }

      .cls-1, .cls-2, .cls-3, .cls-4, .cls-5, .cls-6, .cls-7, .cls-8, .cls-9 {
        stroke-width: 0px;
      }

      .cls-2 {
        fill: #fceed8;
      }

      .cls-3 {
        fill: #ffce99;
      }

      .cls-4 {
        fill: #f26b2e;
      }

      .cls-5 {
        fill: #e94f36;
      }

      .cls-6 {
        fill: #1c0007;
      }

      .cls-7 {
        fill: #f78c3d;
      }

      .cls-8 {
        fill: #f8ab62;
      }

      .cls-9 {
        fill: #b5323e;
      }
    </style>
  </defs>
  <path class="cls-3" d="M406.31,405c-8.51,8.62-18.05,16.21-28.43,22.57-22.69,13.9-49.37,21.93-77.88,21.93s-55.19-8.03-77.88-21.93c-10.38-6.36-19.92-13.95-28.43-22.57h212.62Z"/>
  <path class="cls-8" d="M436.93,360c-7.42,16.85-17.85,32.08-30.62,45h-212.62c-2.55-2.58-5.01-5.25-7.37-8.01-6.31-7.39-11.92-15.41-16.71-23.94v-.02c-2.39-4.23-4.57-8.56-6.54-13.03h56.35c6.1,8.17,13.41,15.39,21.67,21.37,16.56,12.03,36.92,19.13,58.91,19.13s42.35-7.1,58.91-19.13c8.26-5.98,15.57-13.2,21.67-21.37h56.35Z"/>
  <path class="cls-7" d="M219.42,360h-56.35c-6.16-14.01-10.24-29.14-11.82-45h49.37c2.5,16.69,9.13,32.05,18.8,45Z"/>
  <path class="cls-7" d="M448.75,315c-.99,9.92-2.96,19.56-5.8,28.81-1.7,5.54-3.71,10.94-6.02,16.19h-56.35c7.54-10.1,13.23-21.67,16.55-34.19.95-3.53,1.7-7.14,2.25-10.81h49.37Z"/>
  <path class="cls-4" d="M204.08,270c-1.09,3.45-1.99,6.97-2.69,10.57h0c-1.24,6.29-1.89,12.79-1.89,19.43,0,5.1.38,10.1,1.12,15h-49.37c-.5-4.93-.75-9.94-.75-15,0-10.27,1.04-20.31,3.02-30h50.56Z"/>
  <path class="cls-4" d="M449.5,300c0,.67,0,1.34-.01,2.01-.06,4.38-.31,8.71-.74,12.99h-49.37c.39-2.56.67-5.14.86-7.76.17-2.39.26-4.8.26-7.24,0-10.44-1.6-20.52-4.58-30h50.56c1.98,9.69,3.02,19.73,3.02,30Z"/>
  <path class="cls-5" d="M233.18,225c-8.78,7.82-16.19,17.17-21.79,27.62-2.96,5.51-5.42,11.32-7.31,17.38h-50.56c.36-1.76.76-3.51,1.17-5.24,3.44-14.14,8.88-27.5,16.03-39.76h62.46Z"/>
  <path class="cls-5" d="M446.48,270h-50.56c-5.49-17.55-15.69-33.05-29.1-45h62.46c8.02,13.76,13.91,28.91,17.2,45Z"/>
  <path class="cls-1" d="M429.28,225h-62.46c-17.77-15.86-41.19-25.5-66.82-25.5-18.33,0-35.52,4.93-50.33,13.53-5.73,3.33-11.11,7.21-16.05,11.58-.15.12-.29.25-.44.39h-62.46c7.86-13.52,17.78-25.68,29.34-36.09h.01c3.48-3.14,7.11-6.11,10.87-8.91h178.12c9,6.69,17.22,14.37,24.51,22.88,1.11,1.3,2.2,2.61,3.26,3.95,4.58,5.73,8.75,11.8,12.45,18.17Z"/>
  <path class="cls-9" d="M389.06,180h-178.12c24.89-18.53,55.72-29.5,89.06-29.5s64.17,10.97,89.06,29.5Z"/>
  <path class="cls-6" d="M249.67,213.03c-5.73,3.33-11.11,7.21-16.05,11.58-3.91-.77-6.75-1.01-6.75-1.01l-8.26-13.88.33,14.21h-16.52l-9.91-9.91,4.04,10.98.58,1.57-9.91,9.58c10.78,4.69,18.59,10.36,24.17,16.47-2.96,5.51-5.42,11.32-7.31,17.38-1.09,3.45-1.99,6.97-2.69,10.57-.31-4.03-.89-6.92-1.12-5.35-.49,3.46-7.43,12.14-7.43,12.14l-15.05-17.36-2.13-2.46s.14.86.4,2.46c.97,6.15,3.59,23.29,6.13,45,1.61,13.71,3.18,29.24,4.3,45,.02.34.05.69.07,1.03.88,12.59.62,24.8-.24,35.96-6.31-7.39-11.92-15.41-16.71-23.94v-.02c.12-4.59.14-8.97.09-13.03-.19-15.51-1.31-26.39-1.31-26.39l-1.64-18.61-3.98-45-.49-5.6c-2.3-.48-4.91-.27-7.59.36,3.44-14.14,8.88-27.5,16.03-39.76,7.86-13.52,17.78-25.68,29.34-36.09h.01c3.86-1.42,6.4-1.9,6.4-1.9,26.51-2.33,38.12,12.41,43.2,26.02Z"/>
  <path class="cls-6" d="M449.49,302.01c-.06,4.38-.31,8.71-.74,12.99-.99,9.92-2.96,19.56-5.8,28.81-8.34-.89-19.18-4.42-25.59-15.81,0,0-10.37,1.37-20.23-2.19.95-3.53,1.7-7.14,2.25-10.81.39-2.56.67-5.14.86-7.76l49.25-5.23Z"/>
  <path class="cls-2" d="M377.88,427.57c-22.69,13.9-49.37,21.93-77.88,21.93s-55.19-8.03-77.88-21.93c.5-7.9,2.17-15.48,4.86-22.57,3.29-8.73,8.11-16.72,14.11-23.63,16.56,12.03,36.92,19.13,58.91,19.13s42.35-7.1,58.91-19.13c6,6.91,10.82,14.9,14.11,23.63,2.69,7.09,4.36,14.67,4.86,22.57Z"/>
  <path class="cls-6" d="M416.83,206.83c-6.9,2.63-11.34,6.43-11.34,6.43-5.09-11.49-25.45-21.52-25.45-21.52,21.38.58,26.32,13.23,26.32,13.23,2.63-.92,5.03-1.6,7.21-2.09,1.11,1.3,2.2,2.61,3.26,3.95Z"/>
</svg>