<?xml version="1.0" encoding="UTF-8"?>
<svg id="Layer_1" data-name="Layer 1" xmlns="http://www.w3.org/2000/svg" viewBox="0 0 600 600">
  <defs>
    <style>
      .cls-1 {
        fill: #d63f3a;
      }

      .cls-1, .cls-2, .cls-3, .cls-4, .cls-5, .cls-6, .cls-7, .cls-8, .cls-9, .cls-10, .cls-11 {
        stroke-width: 0px;
      }

      .cls-2 {
        fill: #00115b;
      }

      .cls-3 {
        fill: #ffce99;
      }

      .cls-4 {
        fill: #f26b2e;
      }

      .cls-5 {
        fill: #e94f36;
      }

      .cls-6 {
        fill: #1c0007;
      }

      .cls-7 {
        fill: #f78c3d;
      }

      .cls-8 {
        fill: #f8ab62;
      }

      .cls-9 {
        fill: #600b1b;
      }

      .cls-10 {
        fill: #8c2c3b;
      }

      .cls-11 {
        fill: #b5323e;
      }
    </style>
  </defs>
  <path class="cls-2" d="M453.49,496.57c-42.36,33.15-95.65,52.93-153.49,52.93s-111.13-19.78-153.49-52.93h113.88c12.81,2.58,26.05,3.93,39.61,3.93s26.8-1.35,39.61-3.93h113.88Z"/>
  <path class="cls-6" d="M260.39,496.57h-113.88c-17.1-13.38-32.42-28.94-45.53-46.26-.08-.1-.15-.2-.23-.31h66.35c.33.3.66.59,1,.88,25.8,22.59,57.42,38.68,92.29,45.69Z"/>
  <path class="cls-6" d="M499.25,450c-13.16,17.45-28.55,33.11-45.76,46.57h-113.88c34.51-6.94,65.85-22.77,91.51-45,.6-.52,1.19-1.04,1.78-1.57h66.35Z"/>
  <path class="cls-3" d="M167.1,450h-66.35c-7.37-9.76-14.04-20.07-19.93-30.87-2.52-4.62-4.9-9.34-7.14-14.13h55.57c7.9,12.81,17.22,24.68,27.72,35.37,3.26,3.33,6.64,6.54,10.13,9.63Z"/>
  <path class="cls-3" d="M526.32,405c-3.13,6.72-6.56,13.28-10.25,19.66-1.61,2.77-3.26,5.5-4.97,8.2-3.71,5.89-7.67,11.6-11.85,17.14h-66.35c1.44-1.27,2.86-2.57,4.26-3.89,12.92-12.13,24.24-25.95,33.59-41.11h55.57Z"/>
  <path class="cls-8" d="M129.25,405h-55.57c-6.67-14.32-12.02-29.37-15.88-45h50.87c5.01,15.94,11.96,31.04,20.58,45Z"/>
  <path class="cls-8" d="M542.2,360c-1.67,6.77-3.62,13.43-5.84,19.97-2.9,8.56-6.26,16.91-10.04,25.03h-55.57c8.26-13.38,14.99-27.8,19.95-43.02.21-.66.43-1.32.63-1.98h50.87Z"/>
  <path class="cls-7" d="M108.67,360h-50.87c-3.61-14.54-5.94-29.58-6.85-45h49.11c1.15,15.56,4.09,30.63,8.61,45Z"/>
  <path class="cls-7" d="M549.05,315c-.91,15.37-3.23,30.37-6.82,44.88,0,.04-.01.08-.03.12h-50.87c4.52-14.37,7.46-29.44,8.61-45h49.11Z"/>
  <path class="cls-4" d="M99.5,300c0,5.05.19,10.05.56,15h-49.11c-.3-4.96-.45-9.96-.45-15,0-10.15.61-20.16,1.8-30h49.44c-1.37,9.06-2.12,18.32-2.22,27.73h0c-.02.77-.02,1.51-.02,2.27Z"/>
  <path class="cls-4" d="M549.5,300c0,5.04-.15,10.04-.45,15h-49.11c.31-4.12.49-8.28.54-12.46.01-.85.02-1.69.02-2.54,0-10.2-.76-20.21-2.24-30h49.44c1.19,9.84,1.8,19.85,1.8,30Z"/>
  <path class="cls-5" d="M114.05,225c-.62,1.54-1.23,3.09-1.82,4.65-2.42,6.46-4.53,13.06-6.28,19.82h0c-.48,1.82-.93,3.65-1.35,5.48-.24,1.03-.46,2.06-.68,3.09-.85,3.95-1.57,7.93-2.18,11.96h-49.44c1.6-13.31,4.25-26.31,7.88-38.89.58-2.05,1.2-4.09,1.84-6.11h52.03Z"/>
  <path class="cls-5" d="M547.7,270h-49.44c-2.36-15.67-6.54-30.74-12.31-45h52.03c4.58,14.48,7.86,29.52,9.72,45Z"/>
  <path class="cls-1" d="M139.46,180c-10.3,13.75-18.88,28.85-25.41,45h-52.03c2.46-7.8,5.3-15.43,8.49-22.88,3.24-7.57,6.84-14.95,10.79-22.12h58.16Z"/>
  <path class="cls-1" d="M537.98,225h-52.03c-4.51-11.14-9.99-21.78-16.34-31.82-.38-.61-.77-1.22-1.17-1.83-2.5-3.88-5.14-7.66-7.9-11.35h58.16c7.83,14.22,14.32,29.28,19.28,45Z"/>
  <path class="cls-11" d="M186.2,135c-17.9,12.38-33.7,27.6-46.74,45h-58.16c2.86-5.18,5.89-10.26,9.1-15.21,6.56-10.14,13.84-19.78,21.78-28.84.27-.32.54-.64.82-.95h73.2Z"/>
  <path class="cls-11" d="M518.7,180h-58.16c-13.04-17.4-28.84-32.62-46.74-45h73.2c12.14,13.74,22.79,28.83,31.7,45Z"/>
  <path class="cls-10" d="M487,135h-73.2c-32.35-22.38-71.57-35.5-113.8-35.5-32.93,0-64.02,7.98-91.46,22.1-7.75,3.99-15.21,8.47-22.34,13.4h-73.2c15.28-17.3,32.92-32.46,52.4-45h269.2c19.49,12.54,37.12,27.7,52.4,45Z"/>
  <path class="cls-9" d="M434.6,90H165.4c38.86-24.99,85.07-39.5,134.6-39.5s95.74,14.51,134.6,39.5Z"/>
  <path class="cls-6" d="M208.54,121.6c-7.75,3.99-15.21,8.47-22.34,13.4-17.9,12.38-33.7,27.6-46.74,45-10.3,13.75-18.88,28.85-25.41,45-.62,1.54-1.23,3.09-1.82,4.65l-17.26-1.01,1.1-3.64,2.12-7.02c-2.83.13-5.79,3.65-7.98,7.02-2.04,3.12-3.42,6.11-3.42,6.11h-26.61c.58-2.05,1.2-4.09,1.84-6.11,2.46-7.8,5.3-15.43,8.49-22.88,19.81-7.68,45.03-6.23,45.03-6.23,0,0-13.22-11.77-13.71-14.25-.11-.52.28-1.08.96-1.64,2.53-2.09,9.11-4.14,9.11-4.14l-16.02-1.49-5.48-9.58c6.56-10.14,13.84-19.78,21.78-28.84,10.51,5.89,16.57,19.26,16.57,19.26l1.65-9.74c5.62.99,21.19,19.61,21.19,19.61,0-3.96,8.92-23.29,10.28-22.92,1.36.38,3.22,8.06,3.22,8.06.79-6.01,2.41-11.04,4.4-15.22,5.97-12.51,15.27-17.29,15.66-17.48-2.22,5.81,1.74,8.04,1.74,8.04,10.2-4.95,17.07-5.31,21.65-3.96Z"/>
  <path class="cls-6" d="M105.95,249.48c-.48,1.81-.93,3.64-1.35,5.47l-3.19-.79,4.54-4.68Z"/>
  <path class="cls-6" d="M103.92,258.04c-.85,3.95-1.57,7.93-2.18,11.96-1.37,9.06-2.12,18.32-2.22,27.73-3.68-7.68-4.8-20.57-5.14-27.73-.15-3.15-.15-5.19-.15-5.19l9.69-6.77Z"/>
  <path class="cls-6" d="M168.1,450.88h-17.55c.22-.29.45-.58.66-.88,2.16-2.9,4.07-6.13,5.76-9.63,3.26,3.33,6.64,6.54,10.13,9.63.33.3.66.59,1,.88Z"/>
  <path class="cls-6" d="M437.16,446.11c-.32,1.29-.62,2.58-.93,3.89-.12.52-.24,1.04-.36,1.57h-4.75c.6-.52,1.19-1.04,1.78-1.57,1.44-1.27,2.86-2.57,4.26-3.89Z"/>
  <path class="cls-6" d="M542.23,359.88s-.01.08-.03.12c-1.67,6.77-3.62,13.43-5.84,19.97-1.12-.98-2.23-2.07-3.3-3.29,0,0-29.96,2.38-37.96-14.98,0,0-1.78.2-4.4.28.21-.66.43-1.32.63-1.98,4.52-14.37,7.46-29.44,8.61-45,.31-4.12.49-8.28.54-12.46l9.07,12.46,32.68,44.88Z"/>
  <path class="cls-6" d="M516.07,424.66c-1.61,2.77-3.26,5.5-4.97,8.2h-10.9l-12.94,17.14-4.27,5.65-6.55-4.95.53-.7,12.95-17.14h-4.42c-1.78,0-3.38-.72-4.55-1.88-1.16-1.17-1.88-2.78-1.88-4.55l-10.24-13.55c-1.15-1.52-.85-3.69.68-4.84,1.52-1.15,3.69-.85,4.84.67l12.04,15.95h29.68Z"/>
  <path class="cls-6" d="M473.94,193.21c-1.49-.16-2.94-.16-4.33-.03-.38-.61-.77-1.22-1.17-1.83,3.9.4,5.5,1.86,5.5,1.86Z"/>
  <path class="cls-6" d="M114.93,431.72c0,8.46-5.42,15.64-12.98,18.28-.32.12-.64.22-.97.31-.08-.1-.15-.2-.23-.31-7.37-9.76-14.04-20.07-19.93-30.87,3.55-4.16,8.83-6.79,14.73-6.79,10.7,0,19.38,8.67,19.38,19.38Z"/>
</svg>